<?xml version="1.0" encoding="UTF-8"?>
<!--Generator: Apple Native CoreSVG 149-->
<!DOCTYPE svg
PUBLIC "-//W3C//DTD SVG 1.1//EN"
       "http://www.w3.org/Graphics/SVG/1.1/DTD/svg11.dtd">
<svg version="1.1" xmlns="http://www.w3.org/2000/svg" xmlns:xlink="http://www.w3.org/1999/xlink" width="3300" height="2200">
 <!--glyph: "uni1008F7.medium", point size: 100.000000, font version: "Version 16.0d18e1", template writer version: "8"-->
 <g id="Notes">
  <rect height="2200" id="artboard" style="fill:white;opacity:1" width="3300" x="0" y="0"/>
  <line id="" style="fill:none;stroke:black;opacity:1;stroke-width:0.5;" x1="263" x2="3036" y1="292" y2="292"/>
  <text style="stroke:none;fill:black;font-family:-apple-system,&quot;SF Pro Display&quot;,&quot;SF Pro Text&quot;,Helvetica,sans-serif;font-weight:bold;" transform="matrix(1 0 0 1 263 322)">Weight/Scale Variations</text>
  <text style="stroke:none;fill:black;font-family:-apple-system,&quot;SF Pro Display&quot;,&quot;SF Pro Text&quot;,Helvetica,sans-serif;text-anchor:middle;" transform="matrix(1 0 0 1 559.711 322)">Ultralight</text>
  <text style="stroke:none;fill:black;font-family:-apple-system,&quot;SF Pro Display&quot;,&quot;SF Pro Text&quot;,Helvetica,sans-serif;text-anchor:middle;" transform="matrix(1 0 0 1 856.422 322)">Thin</text>
  <text style="stroke:none;fill:black;font-family:-apple-system,&quot;SF Pro Display&quot;,&quot;SF Pro Text&quot;,Helvetica,sans-serif;text-anchor:middle;" transform="matrix(1 0 0 1 1153.13 322)">Light</text>
  <text style="stroke:none;fill:black;font-family:-apple-system,&quot;SF Pro Display&quot;,&quot;SF Pro Text&quot;,Helvetica,sans-serif;text-anchor:middle;" transform="matrix(1 0 0 1 1449.84 322)">Regular</text>
  <text style="stroke:none;fill:black;font-family:-apple-system,&quot;SF Pro Display&quot;,&quot;SF Pro Text&quot;,Helvetica,sans-serif;text-anchor:middle;" transform="matrix(1 0 0 1 1746.56 322)">Medium</text>
  <text style="stroke:none;fill:black;font-family:-apple-system,&quot;SF Pro Display&quot;,&quot;SF Pro Text&quot;,Helvetica,sans-serif;text-anchor:middle;" transform="matrix(1 0 0 1 2043.27 322)">Semibold</text>
  <text style="stroke:none;fill:black;font-family:-apple-system,&quot;SF Pro Display&quot;,&quot;SF Pro Text&quot;,Helvetica,sans-serif;text-anchor:middle;" transform="matrix(1 0 0 1 2339.98 322)">Bold</text>
  <text style="stroke:none;fill:black;font-family:-apple-system,&quot;SF Pro Display&quot;,&quot;SF Pro Text&quot;,Helvetica,sans-serif;text-anchor:middle;" transform="matrix(1 0 0 1 2636.69 322)">Heavy</text>
  <text style="stroke:none;fill:black;font-family:-apple-system,&quot;SF Pro Display&quot;,&quot;SF Pro Text&quot;,Helvetica,sans-serif;text-anchor:middle;" transform="matrix(1 0 0 1 2933.4 322)">Black</text>
  <line id="" style="fill:none;stroke:black;opacity:1;stroke-width:0.5;" x1="263" x2="3036" y1="1903" y2="1903"/>
  <g id="" transform="matrix(1 0 0 1 263 1933)">
   <path d="M9.24805 0.830078C13.5547 0.830078 17.1387-2.74414 17.1387-7.05078C17.1387-11.3574 13.5449-14.9316 9.23828-14.9316C4.94141-14.9316 1.36719-11.3574 1.36719-7.05078C1.36719-2.74414 4.95117 0.830078 9.24805 0.830078ZM9.24805-0.654297C5.70312-0.654297 2.87109-3.49609 2.87109-7.05078C2.87109-10.6055 5.69336-13.4473 9.23828-13.4473C12.793-13.4473 15.6348-10.6055 15.6445-7.05078C15.6543-3.49609 12.8027-0.654297 9.24805-0.654297ZM6.39648-6.31836L8.50586-6.31836L8.50586-4.19922C8.50586-3.75977 8.79883-3.45703 9.22852-3.45703C9.67773-3.45703 9.9707-3.75977 9.9707-4.19922L9.9707-6.31836L12.0996-6.31836C12.5391-6.31836 12.8418-6.61133 12.8418-7.04102C12.8418-7.48047 12.5391-7.7832 12.0996-7.7832L9.9707-7.7832L9.9707-9.89258C9.9707-10.3418 9.67773-10.6445 9.22852-10.6445C8.79883-10.6445 8.50586-10.3418 8.50586-9.89258L8.50586-7.7832L6.39648-7.7832C5.94727-7.7832 5.64453-7.48047 5.64453-7.04102C5.64453-6.61133 5.94727-6.31836 6.39648-6.31836Z"/>
  </g>
  <g id="" transform="matrix(1 0 0 1 281.506 1933)">
   <path d="M11.709 2.91016C17.1582 2.91016 21.6699-1.61133 21.6699-7.05078C21.6699-12.5 17.1484-17.0117 11.6992-17.0117C6.25977-17.0117 1.74805-12.5 1.74805-7.05078C1.74805-1.61133 6.26953 2.91016 11.709 2.91016ZM11.709 1.25C7.09961 1.25 3.41797-2.44141 3.41797-7.05078C3.41797-11.6602 7.08984-15.3516 11.6992-15.3516C16.3086-15.3516 20-11.6602 20.0098-7.05078C20.0195-2.44141 16.3184 1.25 11.709 1.25ZM7.98828-6.23047L10.8789-6.23047L10.8789-3.32031C10.8789-2.83203 11.2109-2.5 11.6895-2.5C12.1777-2.5 12.5195-2.83203 12.5195-3.32031L12.5195-6.23047L15.4297-6.23047C15.918-6.23047 16.25-6.5625 16.25-7.04102C16.25-7.5293 15.918-7.87109 15.4297-7.87109L12.5195-7.87109L12.5195-10.7617C12.5195-11.2695 12.1777-11.6016 11.6895-11.6016C11.2109-11.6016 10.8789-11.2598 10.8789-10.7617L10.8789-7.87109L7.98828-7.87109C7.48047-7.87109 7.14844-7.5293 7.14844-7.04102C7.14844-6.5625 7.49023-6.23047 7.98828-6.23047Z"/>
  </g>
  <g id="" transform="matrix(1 0 0 1 304.924 1933)">
   <path d="M14.9707 5.66406C21.9336 5.66406 27.6953-0.0976562 27.6953-7.05078C27.6953-14.0137 21.9238-19.7754 14.9609-19.7754C8.00781-19.7754 2.25586-14.0137 2.25586-7.05078C2.25586-0.0976562 8.01758 5.66406 14.9707 5.66406ZM14.9707 3.84766C8.93555 3.84766 4.08203-1.01562 4.08203-7.05078C4.08203-13.0957 8.92578-17.9492 14.9609-17.9492C21.0059-17.9492 25.8594-13.0957 25.8691-7.05078C25.8789-1.01562 21.0156 3.84766 14.9707 3.84766ZM10.0586-6.14258L14.0625-6.14258L14.0625-2.12891C14.0625-1.5918 14.4336-1.2207 14.9512-1.2207C15.4883-1.2207 15.8594-1.5918 15.8594-2.12891L15.8594-6.14258L19.8828-6.14258C20.4102-6.14258 20.791-6.51367 20.791-7.03125C20.791-7.56836 20.4199-7.94922 19.8828-7.94922L15.8594-7.94922L15.8594-11.9531C15.8594-12.5098 15.4883-12.8809 14.9512-12.8809C14.4336-12.8809 14.0625-12.5 14.0625-11.9531L14.0625-7.94922L10.0586-7.94922C9.50195-7.94922 9.13086-7.56836 9.13086-7.03125C9.13086-6.51367 9.51172-6.14258 10.0586-6.14258Z"/>
  </g>
  <text style="stroke:none;fill:black;font-family:-apple-system,&quot;SF Pro Display&quot;,&quot;SF Pro Text&quot;,Helvetica,sans-serif;font-weight:bold;" transform="matrix(1 0 0 1 263 1953)">Design Variations</text>
  <text style="stroke:none;fill:black;font-family:-apple-system,&quot;SF Pro Display&quot;,&quot;SF Pro Text&quot;,Helvetica,sans-serif;" transform="matrix(1 0 0 1 263 1971)">Symbols are supported in up to nine weights and three scales.</text>
  <text style="stroke:none;fill:black;font-family:-apple-system,&quot;SF Pro Display&quot;,&quot;SF Pro Text&quot;,Helvetica,sans-serif;" transform="matrix(1 0 0 1 263 1989)">For optimal layout with text and other symbols, vertically align</text>
  <text style="stroke:none;fill:black;font-family:-apple-system,&quot;SF Pro Display&quot;,&quot;SF Pro Text&quot;,Helvetica,sans-serif;" transform="matrix(1 0 0 1 263 2007)">symbols with the adjacent text.</text>
  <line id="" style="fill:none;stroke:#00AEEF;stroke-width:0.5;opacity:1.0;" x1="776" x2="776" y1="1919" y2="1933"/>
  <g id="" transform="matrix(1 0 0 1 776 1933)">
   <path d="M3.31055 0.126953C3.82812 0.126953 4.08203-0.0683594 4.26758-0.605469L5.52734-4.0625L11.2891-4.0625L12.5488-0.605469C12.7344-0.0683594 12.9883 0.126953 13.4961 0.126953C14.0137 0.126953 14.3457-0.185547 14.3457-0.673828C14.3457-0.839844 14.3164-0.986328 14.2383-1.20117L9.6582-13.3887C9.43359-13.9941 9.0332-14.2871 8.4082-14.2871C7.80273-14.2871 7.39258-13.9941 7.17773-13.3984L2.59766-1.19141C2.51953-0.976562 2.49023-0.830078 2.49023-0.664062C2.49023-0.175781 2.80273 0.126953 3.31055 0.126953ZM6.00586-5.53711L8.37891-12.1094L8.42773-12.1094L10.8008-5.53711Z"/>
  </g>
  <line id="" style="fill:none;stroke:#00AEEF;stroke-width:0.5;opacity:1.0;" x1="792.836" x2="792.836" y1="1919" y2="1933"/>
  <text style="stroke:none;fill:black;font-family:-apple-system,&quot;SF Pro Display&quot;,&quot;SF Pro Text&quot;,Helvetica,sans-serif;font-weight:bold;" transform="matrix(1 0 0 1 776 1953)">Margins</text>
  <text style="stroke:none;fill:black;font-family:-apple-system,&quot;SF Pro Display&quot;,&quot;SF Pro Text&quot;,Helvetica,sans-serif;" transform="matrix(1 0 0 1 776 1971)">Leading and trailing margins on the left and right side of each symbol</text>
  <text style="stroke:none;fill:black;font-family:-apple-system,&quot;SF Pro Display&quot;,&quot;SF Pro Text&quot;,Helvetica,sans-serif;" transform="matrix(1 0 0 1 776 1989)">can be adjusted by modifying the x-location of the margin guidelines.</text>
  <text style="stroke:none;fill:black;font-family:-apple-system,&quot;SF Pro Display&quot;,&quot;SF Pro Text&quot;,Helvetica,sans-serif;" transform="matrix(1 0 0 1 776 2007)">Modifications are automatically applied proportionally to all</text>
  <text style="stroke:none;fill:black;font-family:-apple-system,&quot;SF Pro Display&quot;,&quot;SF Pro Text&quot;,Helvetica,sans-serif;" transform="matrix(1 0 0 1 776 2025)">scales and weights.</text>
  <g id="" transform="matrix(1 0 0 1 1289 1933)">
   <path d="M2.8418 1.86523L4.54102 3.57422C5.40039 4.44336 6.38672 4.38477 7.31445 3.35938L17.4902-7.85156C17.7539-7.76367 18.0273-7.7832 18.3398-7.8418L19.4043-8.03711L20.0684-7.36328L20.0293-6.80664C19.9902-6.30859 20.1172-5.92773 20.6055-5.44922L21.3672-4.70703C21.8457-4.22852 22.4609-4.19922 22.9297-4.66797L25.8398-7.58789C26.3086-8.05664 26.2891-8.65234 25.8105-9.13086L25.0391-9.89258C24.5605-10.3711 24.1895-10.5273 23.7109-10.4883L23.1348-10.4395L22.4902-11.0742L22.7344-12.1973C22.8613-12.7637 22.7051-13.2031 22.1191-13.7891L19.9219-15.9766C16.582-19.2969 12.1484-19.2188 9.25781-16.3281C8.83789-15.918 8.80859-15.3418 9.04297-14.9512C9.27734-14.5898 9.73633-14.3555 10.3809-14.5215C11.8457-14.8633 13.3691-14.9219 14.7949-13.9844L14.209-12.5293C14.0137-12.0508 13.9844-11.6504 14.1113-11.2891L3.04688-0.898438C2.06055 0.0195312 1.98242 0.996094 2.8418 1.86523ZM10.752-15.957C13.1836-17.7344 16.4746-17.4316 18.7012-15.2051L21.1328-12.793C21.3672-12.5586 21.4062-12.373 21.3379-12.0312L21.0156-10.5469L22.5195-9.0625L23.5059-9.12109C23.7598-9.13086 23.8379-9.11133 24.0332-8.91602L24.6094-8.33984L22.168-5.89844L21.5918-6.47461C21.3965-6.66992 21.3672-6.74805 21.377-7.01172L21.4453-7.98828L19.9512-9.47266L18.4277-9.21875C18.1055-9.15039 17.959-9.17969 17.7148-9.41406L15.7129-11.416C15.459-11.6504 15.4297-11.8164 15.5859-12.1875L16.4648-14.2773C14.9023-15.7324 12.8711-16.3574 10.8398-15.7617C10.6836-15.7227 10.625-15.8496 10.752-15.957ZM5.27344 2.30469L4.10156 1.14258C3.63281 0.683594 3.74023 0.341797 4.14062-0.0195312L14.9512-10.1953L16.416-8.71094L6.42578 2.27539C6.07422 2.67578 5.74219 2.77344 5.27344 2.30469Z"/>
  </g>
  <text style="stroke:none;fill:black;font-family:-apple-system,&quot;SF Pro Display&quot;,&quot;SF Pro Text&quot;,Helvetica,sans-serif;font-weight:bold;" transform="matrix(1 0 0 1 1289 1953)">Exporting</text>
  <text style="stroke:none;fill:black;font-family:-apple-system,&quot;SF Pro Display&quot;,&quot;SF Pro Text&quot;,Helvetica,sans-serif;" transform="matrix(1 0 0 1 1289 1971)">Symbols should be outlined when exporting to ensure the</text>
  <text style="stroke:none;fill:black;font-family:-apple-system,&quot;SF Pro Display&quot;,&quot;SF Pro Text&quot;,Helvetica,sans-serif;" transform="matrix(1 0 0 1 1289 1989)">design is preserved when submitting to Xcode.</text>
  <text id="template-version" style="stroke:none;fill:black;font-family:-apple-system,&quot;SF Pro Display&quot;,&quot;SF Pro Text&quot;,Helvetica,sans-serif;text-anchor:end;" transform="matrix(1 0 0 1 3036 1933)">Template v.2.0</text>
  <text style="stroke:none;fill:black;font-family:-apple-system,&quot;SF Pro Display&quot;,&quot;SF Pro Text&quot;,Helvetica,sans-serif;text-anchor:end;" transform="matrix(1 0 0 1 3036 1951)">Requires Xcode 12 or greater</text>
  <text style="stroke:none;fill:black;font-family:-apple-system,&quot;SF Pro Display&quot;,&quot;SF Pro Text&quot;,Helvetica,sans-serif;text-anchor:end;" transform="matrix(1 0 0 1 3036 1969)">Generated from paintbrush.pointed.fill</text>
  <text style="stroke:none;fill:black;font-family:-apple-system,&quot;SF Pro Display&quot;,&quot;SF Pro Text&quot;,Helvetica,sans-serif;text-anchor:end;" transform="matrix(1 0 0 1 3036 1987)">Typeset at 100 points</text>
  <text style="stroke:none;fill:black;font-family:-apple-system,&quot;SF Pro Display&quot;,&quot;SF Pro Text&quot;,Helvetica,sans-serif;" transform="matrix(1 0 0 1 263 726)">Small</text>
  <text style="stroke:none;fill:black;font-family:-apple-system,&quot;SF Pro Display&quot;,&quot;SF Pro Text&quot;,Helvetica,sans-serif;" transform="matrix(1 0 0 1 263 1156)">Medium</text>
  <text style="stroke:none;fill:black;font-family:-apple-system,&quot;SF Pro Display&quot;,&quot;SF Pro Text&quot;,Helvetica,sans-serif;" transform="matrix(1 0 0 1 263 1586)">Large</text>
 </g>
 <g id="Guides">
  <g id="H-reference" style="fill:#27AAE1;stroke:none;" transform="matrix(1 0 0 1 339 696)">
   <path d="M0.976562 0L3.66211 0L12.9883-24.4629L45.752-24.4629L55.127 0L57.7637 0L30.6152-70.459L28.125-70.459ZM29.3457-67.1387L29.4434-67.1387L44.873-26.709L13.8672-26.709Z"/>
  </g>
  <line id="Baseline-S" style="fill:none;stroke:#27AAE1;opacity:1;stroke-width:0.5;" x1="263" x2="3036" y1="696" y2="696"/>
  <line id="Capline-S" style="fill:none;stroke:#27AAE1;opacity:1;stroke-width:0.5;" x1="263" x2="3036" y1="625.541" y2="625.541"/>
  <g id="H-reference" style="fill:#27AAE1;stroke:none;" transform="matrix(1 0 0 1 339 1126)">
   <path d="M0.976562 0L3.66211 0L12.9883-24.4629L45.752-24.4629L55.127 0L57.7637 0L30.6152-70.459L28.125-70.459ZM29.3457-67.1387L29.4434-67.1387L44.873-26.709L13.8672-26.709Z"/>
  </g>
  <line id="Baseline-M" style="fill:none;stroke:#27AAE1;opacity:1;stroke-width:0.5;" x1="263" x2="3036" y1="1126" y2="1126"/>
  <line id="Capline-M" style="fill:none;stroke:#27AAE1;opacity:1;stroke-width:0.5;" x1="263" x2="3036" y1="1055.54" y2="1055.54"/>
  <g id="H-reference" style="fill:#27AAE1;stroke:none;" transform="matrix(1 0 0 1 339 1556)">
   <path d="M0.976562 0L3.66211 0L12.9883-24.4629L45.752-24.4629L55.127 0L57.7637 0L30.6152-70.459L28.125-70.459ZM29.3457-67.1387L29.4434-67.1387L44.873-26.709L13.8672-26.709Z"/>
  </g>
  <line id="Baseline-L" style="fill:none;stroke:#27AAE1;opacity:1;stroke-width:0.5;" x1="263" x2="3036" y1="1556" y2="1556"/>
  <line id="Capline-L" style="fill:none;stroke:#27AAE1;opacity:1;stroke-width:0.5;" x1="263" x2="3036" y1="1485.54" y2="1485.54"/>
  <line id="left-margin" style="fill:none;stroke:#00AEEF;stroke-width:0.5;opacity:1.0;" x1="1385.61" x2="1385.61" y1="1030.79" y2="1150.12"/>
  <line id="right-margin" style="fill:none;stroke:#00AEEF;stroke-width:0.5;opacity:1.0;" x1="1514.08" x2="1514.08" y1="1030.79" y2="1150.12"/>
 </g>
 <g id="Symbols">
  <g id="Black-L" transform="matrix(1 0 0 1 2841.31 1556)">
   <path d="M145.85-104.59C142.725-102.344 108.838-79.3945 85.9863-59.5215C102.881-53.5156 115.771-40.4785 121.777-23.7793C141.65-46.6309 164.6-80.4688 166.797-83.6426C176.465-97.7051 159.57-114.307 145.85-104.59ZM84.5703-22.4121C90.332-16.6504 94.1895-9.81445 95.7031-3.07617C99.8535-3.95508 103.369-5.61523 106.738-8.34961C107.471-8.93555 108.154-9.57031 108.887-10.2051C106.982-28.3691 91.0156-44.9219 72.4121-46.6797C71.7773-45.9961 71.1914-45.3613 70.6543-44.6777C67.7246-41.1621 66.0156-37.4512 65.2344-33.4473C71.9238-31.9824 78.9062-28.125 84.5703-22.4121ZM19.5801 23.2422C33.9355 38.8672 60.1562 41.6504 75.8789 27.1973C88.623 15.5762 88.916-1.12305 77.5879-13.4766C67.334-24.6582 51.709-26.5625 41.0156-16.5527C31.9336-8.34961 35.4492 0.244141 31.0059 4.15039C26.5137 8.20312 20.6543 5.46875 16.6504 9.13086C12.4512 12.9883 14.8926 18.2617 19.5801 23.2422Z"/>
  </g>
  <g id="Heavy-L" transform="matrix(1 0 0 1 2546.94 1556)">
   <path d="M142.822-102.344C139.6-100.049 105.078-76.6113 82.6172-56.9336C98.8281-51.3672 111.328-38.8184 116.846-22.7051C136.572-45.1172 160.059-79.6387 162.305-82.8613C171.338-95.9961 155.566-111.426 142.822-102.344ZM81.8359-21.9238C87.3047-16.4551 91.0156-9.81445 92.3828-3.4668C96.6309-4.3457 100.293-6.20117 103.857-9.27734C104.59-9.86328 105.225-10.498 105.908-11.1328C103.857-28.5645 88.7207-43.9941 71.0449-45.9961C70.4102-45.3613 69.8242-44.7266 69.2871-44.043C66.0645-40.3809 64.1602-36.5723 63.3301-32.373C69.6289-31.0547 76.3672-27.3438 81.8359-21.9238ZM18.7012 20.8008C32.1289 36.2305 57.5684 39.5508 73.0469 26.123C85.6934 15.1855 86.6211-0.78125 76.0254-13.0371C66.4062-24.1211 51.2207-26.2695 40.9668-17.1387C31.5918-9.17969 35.2539-0.244141 30.3711 3.80859C25.6836 7.8125 20.3613 5.17578 16.6016 8.44727C12.9395 11.6699 14.5996 16.2598 18.7012 20.8008Z"/>
  </g>
  <g id="Bold-L" transform="matrix(1 0 0 1 2252.87 1556)">
   <path d="M139.404-99.8535C136.133-97.5098 100.879-73.4375 78.9062-54.0039C94.3359-48.9258 106.299-37.0117 111.377-21.4844C130.859-43.5059 154.932-78.7109 157.227-81.9824C165.576-94.043 151.074-108.252 139.404-99.8535ZM78.7109-21.3867C83.8867-16.2109 87.4512-9.81445 88.623-3.90625C93.0664-4.78516 96.8262-6.83594 100.684-10.3516C101.318-10.8887 101.953-11.5234 102.588-12.1582C100.293-28.7598 86.1328-43.0176 69.5312-45.2148C68.8965-44.6289 68.3105-43.9941 67.7246-43.3594C64.1602-39.4531 62.0605-35.5957 61.2305-31.1523C67.0898-30.0781 73.584-26.5137 78.7109-21.3867ZM17.7246 18.1152C30.0781 33.3496 54.6387 37.2559 69.8242 24.9512C82.4707 14.7461 84.0332-0.439453 74.2188-12.5488C65.332-23.5352 50.7324-25.9766 40.918-17.8223C31.2012-10.0586 35.0586-0.732422 29.6875 3.4668C24.8047 7.37305 20.0195 4.83398 16.5039 7.66602C13.4277 10.2539 14.2578 14.0625 17.7246 18.1152Z"/>
  </g>
  <g id="Semibold-L" transform="matrix(1 0 0 1 1957.96 1556)">
   <path d="M137.012-98.1445C133.74-95.752 97.998-71.2402 76.3184-52.002C91.2109-47.2656 102.832-35.7422 107.617-20.6543C126.904-42.3828 151.416-78.0273 153.76-81.3965C161.621-92.6758 147.998-106.055 137.012-98.1445ZM76.5625-20.9961C81.543-16.0156 85.0098-9.81445 86.084-4.19922C90.625-5.07812 94.4824-7.27539 98.4375-11.0352C99.0723-11.6211 99.707-12.207 100.293-12.8418C97.8516-28.9062 84.375-42.2852 68.457-44.6777C67.8223-44.0918 67.2363-43.5059 66.6992-42.8711C62.8418-38.8184 60.6445-34.9121 59.7656-30.3223C65.332-29.3945 71.6309-25.9277 76.5625-20.9961ZM17.041 16.2109C28.7109 31.2988 52.6367 35.6445 67.627 24.1211C80.2734 14.4531 82.2754-0.146484 72.998-12.207C64.5996-23.1445 50.3418-25.7812 40.8691-18.3105C30.957-10.6934 34.9121-1.12305 29.1992 3.22266C24.1699 7.08008 19.7754 4.58984 16.4551 7.12891C13.7695 9.22852 14.0625 12.5 17.041 16.2109Z"/>
  </g>
  <g id="Medium-L" transform="matrix(1 0 0 1 1662.62 1556)">
   <path d="M135.254-96.8262C131.885-94.4336 95.8008-69.5801 74.3164-50.4883C88.8672-45.9961 100.244-34.7656 104.736-20.0195C123.926-41.5039 148.779-77.5391 151.123-80.957C158.643-91.6504 145.654-104.395 135.254-96.8262ZM74.9512-20.7031C79.7363-15.918 83.1055-9.81445 84.082-4.39453C88.7695-5.32227 92.6758-7.61719 96.7773-11.5723C97.4121-12.1582 97.9492-12.7441 98.5352-13.3789C96.0449-29.0039 83.0078-41.7969 67.6758-44.2871C67.041-43.7012 66.4551-43.1152 65.8691-42.5293C61.8164-38.3789 59.5703-34.375 58.6914-29.6875C64.0137-28.8574 70.166-25.5371 74.9512-20.7031ZM16.5039 14.7949C27.6367 29.7852 51.0742 34.4238 65.918 23.4863C78.5645 14.209 80.9082 0.0488281 72.0215-11.9629C64.0137-22.8516 50.0488-25.6348 40.8203-18.6523C30.7617-11.1816 34.8145-1.36719 28.8086 3.02734C23.6816 6.83594 19.6289 4.39453 16.4062 6.73828C14.0137 8.44727 13.8672 11.3281 16.5039 14.7949Z"/>
  </g>
  <g id="Regular-L" transform="matrix(1 0 0 1 1367.72 1556)">
   <path d="M132.91-95.166C129.541-92.7246 92.9688-67.4316 71.7773-48.4863C85.791-44.3359 96.8262-33.5449 101.025-19.1895C120.02-40.3809 145.264-76.9043 147.705-80.3711C154.688-90.332 142.578-102.197 132.91-95.166ZM72.8516-20.3125C77.4414-15.7227 80.7129-9.81445 81.543-4.6875C86.3281-5.61523 90.332-8.00781 94.5801-12.3047C95.166-12.8906 95.752-13.4277 96.2891-14.0625C93.6035-29.1504 81.25-41.1133 66.6504-43.75C66.0156-43.2129 65.4297-42.627 64.8438-42.041C60.5469-37.7441 58.1543-33.6914 57.2754-28.9062C62.2559-28.1738 68.2617-24.9512 72.8516-20.3125ZM15.8203 12.9395C26.2207 27.7832 49.1211 32.8613 63.7207 22.7051C76.3672 13.916 79.1504 0.292969 70.8008-11.6699C63.2812-22.4609 49.707-25.4395 40.8203-19.0918C30.4688-11.7676 34.668-1.70898 28.3203 2.7832C23.0957 6.49414 19.3848 4.15039 16.3574 6.20117C14.3555 7.4707 13.6719 9.81445 15.8203 12.9395Z"/>
  </g>
  <g id="Light-L" transform="matrix(1 0 0 1 1072.03 1556)">
   <path d="M132.08-94.4824C128.467-91.9434 89.7949-64.9414 68.9941-45.9961C82.7148-42.2852 93.5547-31.8359 97.3145-17.627C116.211-38.4277 143.311-77.0996 145.801-80.8105C152.197-90.1367 141.26-101.025 132.08-94.4824ZM71.0449-19.8242C75.6348-15.2344 78.7109-9.52148 79.541-4.29688C83.9844-5.32227 87.7441-7.76367 91.9922-12.0117C92.4805-12.4512 92.8711-12.8906 93.3105-13.3789C90.8203-28.2715 78.9062-39.502 64.6973-42.041C64.209-41.6504 63.7695-41.1621 63.3301-40.7227C58.9844-36.377 56.543-32.5684 55.6152-28.0762C60.6934-27.4414 66.4551-24.4629 71.0449-19.8242ZM15.8203 12.0605C25.9766 26.5625 48.3398 31.543 62.6465 21.582C75 12.9883 77.6855-0.292969 69.5312-12.0117C62.207-22.6074 48.9258-25.4883 40.2344-19.2871C30.127-12.1094 34.1797-2.29492 28.0273 2.09961C22.9004 5.76172 19.2383 3.4668 16.3086 5.46875C14.3555 6.73828 13.623 8.98438 15.8203 12.0605Z"/>
  </g>
  <g id="Thin-L" transform="matrix(1 0 0 1 776.686 1556)">
   <path d="M131.006-93.6523C127.1-90.9668 85.5957-61.5723 65.2832-42.7246C78.6621-39.5996 89.2578-29.6387 92.3828-15.5762C111.182-35.8887 140.674-77.3438 143.311-81.3477C148.877-89.9414 139.502-99.4629 131.006-93.6523ZM68.7012-19.1406C73.291-14.5508 76.0742-9.13086 76.9043-3.80859C80.9082-4.88281 84.3262-7.37305 88.623-11.6211C88.916-11.9141 89.1113-12.1582 89.4043-12.4512C87.1094-27.1484 75.7324-37.3535 62.1582-39.7949C61.8652-39.502 61.5723-39.2578 61.2793-38.9648C56.9824-34.6191 54.4922-31.1035 53.3691-26.9531C58.6426-26.4648 64.1113-23.7793 68.7012-19.1406ZM15.7227 10.8887C25.6348 24.9023 47.2656 29.7852 61.1328 20.1172C73.1445 11.7676 75.7324-1.12305 67.8711-12.4512C60.7422-22.7539 47.8516-25.5371 39.4043-19.5312C29.6387-12.5488 33.5938-3.07617 27.5879 1.2207C22.6562 4.78516 19.0918 2.53906 16.2109 4.49219C14.3555 5.76172 13.623 7.86133 15.7227 10.8887Z"/>
  </g>
  <g id="Ultralight-L" transform="matrix(1 0 0 1 480.683 1556)">
   <path d="M130.469-93.2129C126.367-90.4297 83.4473-59.8633 63.3789-41.0645C76.5625-38.2324 87.0605-28.5156 89.8926-14.502C108.594-34.5703 139.355-77.4902 142.041-81.6406C147.217-89.8438 138.574-98.6328 130.469-93.2129ZM67.4805-18.7988C72.0703-14.209 74.7559-8.98438 75.5371-3.51562C79.2969-4.6875 82.6172-7.17773 86.8652-11.4746C87.0605-11.6699 87.1582-11.7676 87.4023-11.9629C85.1562-26.5625 74.1699-36.2793 60.8398-38.6719C60.6445-38.4277 60.4492-38.2324 60.2539-38.0371C55.9082-33.6914 53.418-30.3223 52.2461-26.416C57.6172-25.9277 62.9395-23.4375 67.4805-18.7988ZM15.7227 10.3027C25.4395 24.0723 46.7773 28.8574 60.4004 19.3848C72.2168 11.1328 74.7559-1.51367 67.041-12.6953C60.0098-22.8516 47.3145-25.5371 39.0137-19.6289C29.3457-12.793 33.252-3.4668 27.3926 0.78125C22.5098 4.29688 18.9941 2.05078 16.2109 3.95508C14.3555 5.27344 13.623 7.32422 15.7227 10.3027Z"/>
  </g>
  <g id="Black-M" transform="matrix(1 0 0 1 2859.38 1126)">
   <path d="M116.846-91.6504C114.355-89.8926 87.8418-71.9238 69.7754-56.25C83.6426-51.2207 94.1406-40.625 99.0723-26.9531C114.746-45.0195 132.764-71.5332 134.473-74.0234C142.48-85.9375 128.467-99.707 116.846-91.6504ZM68.457-25.6836C73.291-20.8496 76.3672-15.3809 77.7344-9.57031C80.5176-10.2539 82.959-11.377 85.3027-13.0371C85.8887-13.3789 86.377-13.8184 86.9141-14.2578C85.791-29.1992 72.5098-43.0664 57.0312-44.0918C56.6406-43.6035 56.2012-43.1641 55.9082-42.6758C54.0527-40.2344 52.9297-37.5488 52.2949-34.8633C58.0566-33.4961 63.6719-30.4688 68.457-25.6836ZM16.4551 12.8906C28.7109 25.0488 49.8535 26.416 62.207 13.9648C71.9238 4.19922 71.3379-9.57031 61.7676-19.1406C53.0273-27.7832 40.3809-28.8574 31.6406-20.0684C25.0977-13.4766 27.5879-7.42188 24.8535-4.63867C21.6309-1.41602 16.4551-3.66211 13.0859-0.292969C9.17969 3.51562 12.0605 8.49609 16.4551 12.8906Z"/>
  </g>
  <g id="Heavy-M" transform="matrix(1 0 0 1 2564.98 1126)">
   <path d="M113.672-89.3555C111.182-87.5977 84.5215-69.4824 66.7969-54.0527C79.9805-49.4141 90.0391-39.2578 94.6777-26.1719C110.107-43.8965 128.271-70.5566 129.98-73.0469C137.5-84.082 124.365-96.9238 113.672-89.3555ZM65.8691-25.293C70.4102-20.752 73.3398-15.4297 74.5605-10.1074C77.5879-10.791 80.2734-12.0605 82.8125-14.1113C83.3984-14.502 83.8867-14.9414 84.4238-15.4297C83.0078-29.6387 70.5566-42.5293 56.0059-43.7988C55.5664-43.3105 55.127-42.8711 54.7852-42.334C52.5879-39.6973 51.2695-36.8652 50.6348-33.8867C55.957-32.7148 61.377-29.7852 65.8691-25.293ZM15.4785 10.4492C26.7578 22.5098 47.168 24.5117 59.3262 13.1348C69.0918 4.00391 69.1895-9.0332 60.3027-18.5547C52.2461-27.1973 40.0391-28.5645 31.6895-20.6543C24.8047-14.3066 27.4902-7.8125 24.2188-4.83398C20.752-1.66016 16.1621-3.80859 12.9883-0.878906C9.61914 2.24609 11.7188 6.54297 15.4785 10.4492Z"/>
  </g>
  <g id="Bold-M" transform="matrix(1 0 0 1 2270.86 1126)">
   <path d="M110.156-86.8164C107.666-85.0586 80.8105-66.7969 63.4766-51.5625C75.9277-47.3145 85.498-37.7441 89.7461-25.3418C104.932-42.6758 123.242-69.4824 125-71.9727C131.885-81.9824 119.824-93.75 110.156-86.8164ZM62.9395-24.8535C67.1387-20.6543 70.0195-15.5273 71.0449-10.6934C74.3652-11.377 77.1973-12.8418 80.0293-15.332C80.5664-15.7715 81.1035-16.2598 81.5918-16.748C79.9805-30.127 68.4082-41.8945 54.8828-43.457C54.3945-42.9688 53.9062-42.4805 53.5156-41.9922C50.9277-39.0625 49.4141-36.1328 48.7793-32.8125C53.6133-31.8359 58.7891-29.0039 62.9395-24.8535ZM14.3555 7.76367C24.6094 19.6777 44.1406 22.3633 56.1035 12.1582C65.918 3.80859 66.748-8.44727 58.6426-17.9199C51.3184-26.5137 39.6973-28.2227 31.7871-21.3379C24.4629-15.1855 27.3438-8.20312 23.4863-5.0293C19.7754-1.95312 15.7715-4.00391 12.8906-1.51367C10.1562 0.878906 11.3281 4.29688 14.3555 7.76367Z"/>
  </g>
  <g id="Semibold-M" transform="matrix(1 0 0 1 1975.93 1126)">
   <path d="M107.715-85.1074C105.225-83.3008 78.2715-64.8926 61.1816-49.9023C73.0957-45.8984 82.373-36.6699 86.3281-24.7559C101.367-41.7969 119.775-68.75 121.533-71.2402C128.027-80.5176 116.699-91.6016 107.715-85.1074ZM60.9375-24.5117C64.8926-20.5566 67.6758-15.5762 68.6035-11.084C72.1191-11.7676 75.0977-13.3789 78.125-16.1621C78.6621-16.6504 79.1504-17.1387 79.6875-17.627C77.832-30.4199 66.8945-41.4551 54.1016-43.2129C53.5645-42.7246 53.0762-42.2363 52.6367-41.6992C49.7559-38.6719 48.1445-35.5957 47.5098-32.0801C51.9531-31.25 57.0312-28.4668 60.9375-24.5117ZM13.623 5.85938C23.0957 17.7246 42.0898 20.8984 53.9062 11.4746C63.7695 3.66211 65.0879-8.05664 57.5195-17.5293C50.7324-26.0742 39.4043-28.0273 31.8359-21.8262C24.2188-15.8203 27.2461-8.44727 22.998-5.17578C19.1406-2.09961 15.5273-4.10156 12.8418-1.95312C10.498-0.0488281 11.0352 2.7832 13.623 5.85938Z"/>
  </g>
  <g id="Medium-M" transform="matrix(1 0 0 1 1680.56 1126)">
   <path d="M105.859-83.7402C103.369-81.9336 76.3184-63.4766 59.4727-48.584C70.9961-44.8242 79.9805-35.8887 83.7402-24.2676C98.6816-41.1621 117.139-68.1641 118.945-70.7031C125.098-79.4434 114.355-89.9414 105.859-83.7402ZM59.4238-24.2676C63.1836-20.5078 65.918-15.625 66.748-11.377C70.459-12.0605 73.5352-13.7695 76.6602-16.7969C77.1973-17.2852 77.6855-17.7734 78.1738-18.3105C76.2207-30.6641 65.7715-41.1133 53.5156-43.0176C52.9785-42.5781 52.4414-42.041 51.9531-41.5039C48.9258-38.3789 47.168-35.2051 46.582-31.4941C50.7324-30.7617 55.6641-28.0762 59.4238-24.2676ZM13.0371 4.44336C21.9727 16.2598 40.5273 19.7754 52.1973 10.9375C62.1094 3.51562 63.8184-7.76367 56.6895-17.1875C50.2441-25.7324 39.209-27.832 31.8848-22.168C24.0723-16.2598 27.1973-8.69141 22.6074-5.27344C18.6523-2.24609 15.332-4.19922 12.793-2.29492C10.791-0.78125 10.8398 1.66016 13.0371 4.44336Z"/>
  </g>
  <g id="Regular-M" transform="matrix(1 0 0 1 1385.61 1126)">
   <path d="M103.467-82.0312C100.977-80.2246 73.8281-61.6211 57.1777-46.9238C68.2129-43.457 76.8555-34.8633 80.3711-23.6816C95.166-40.332 113.721-67.4316 115.527-69.9707C121.289-78.0273 111.23-87.793 103.467-82.0312ZM57.4219-23.9746C60.9863-20.4102 63.6719-15.6738 64.3066-11.8164C68.2617-12.4512 71.4355-14.3066 74.7559-17.627C75.293-18.1152 75.7812-18.6523 76.2695-19.2383C74.1211-31.0059 64.3066-40.6738 52.7344-42.8223C52.1484-42.334 51.6113-41.7969 51.0742-41.2598C47.7539-37.9395 45.9473-34.668 45.3125-30.8105C49.1211-30.1758 53.9062-27.5391 57.4219-23.9746ZM12.3047 2.58789C20.459 14.3066 38.4766 18.3105 50 10.3027C59.9609 3.36914 62.1582-7.37305 55.5664-16.748C49.6582-25.2441 38.9648-27.6367 31.9336-22.6074C23.8281-16.8457 27.0996-8.93555 22.1191-5.41992C17.9688-2.44141 15.0879-4.29688 12.6953-2.68555C11.1328-1.70898 10.5469 0.146484 12.3047 2.58789Z"/>
  </g>
  <g id="Light-M" transform="matrix(1 0 0 1 1089.83 1126)">
   <path d="M102.734-81.4453C100.049-79.541 70.9961-59.375 54.6875-44.6777C65.4785-41.6016 73.9746-33.3496 77.0508-22.3145C91.748-38.5742 111.914-67.5781 113.818-70.3613C119.092-77.8809 110.059-86.7676 102.734-81.4453ZM55.8594-23.5352C59.4238-19.9707 61.8652-15.4297 62.5488-11.4258C66.1621-12.207 69.1406-14.0625 72.4609-17.3828C72.8516-17.7734 73.2422-18.1641 73.6328-18.6035C71.6309-30.2246 62.207-39.2578 51.0254-41.2598C50.5859-40.918 50.1465-40.4785 49.7559-40.0879C46.3867-36.7188 44.5312-33.6914 43.8477-30.0293C47.7539-29.4922 52.2949-27.0996 55.8594-23.5352ZM12.2559 1.80664C20.2637 13.1836 37.793 17.0898 49.0234 9.32617C58.7402 2.53906 60.8398-7.91016 54.4434-17.0898C48.6816-25.3906 38.2812-27.6367 31.4453-22.8027C23.4863-17.1875 26.709-9.47266 21.8262-6.00586C17.8223-3.125 14.9902-4.93164 12.6465-3.36914C11.1328-2.39258 10.5957-0.585938 12.2559 1.80664Z"/>
  </g>
  <g id="Thin-M" transform="matrix(1 0 0 1 794.313 1126)">
   <path d="M101.807-80.6641C98.8281-78.6133 67.2363-56.3477 51.416-41.748C61.8652-39.209 70.1172-31.3965 72.6562-20.4102C87.2559-36.2793 109.619-67.8223 111.621-70.8496C116.113-77.6855 108.496-85.3516 101.807-80.6641ZM53.7598-22.9004C57.3242-19.3359 59.5703-15.0879 60.2051-10.9863C63.3789-11.8164 66.1133-13.7207 69.4336-17.041C69.6777-17.2852 69.873-17.4805 70.1172-17.7734C68.3105-29.1992 59.375-37.3535 48.7305-39.2578C48.4863-39.0137 48.1934-38.7695 47.9492-38.4766C44.5801-35.1562 42.6758-32.3242 41.8457-29.0527C45.8984-28.6133 50.1953-26.5137 53.7598-22.9004ZM12.207 0.78125C19.9707 11.7188 36.8652 15.5273 47.7051 8.00781C57.1289 1.46484 59.1309-8.64258 52.9785-17.4805C47.4121-25.5371 37.3535-27.6855 30.7617-22.998C23.0957-17.5781 26.1719-10.1562 21.4844-6.78711C17.627-4.00391 14.8438-5.76172 12.5977-4.24805C11.1328-3.27148 10.5957-1.5625 12.207 0.78125Z"/>
  </g>
  <g id="Ultralight-M" transform="matrix(1 0 0 1 498.237 1126)">
   <path d="M101.318-80.2734C98.1934-78.1738 65.332-54.834 49.707-40.2344C60.0098-37.9883 68.1641-30.3711 70.4102-19.4824C84.9609-35.1074 108.398-67.9199 110.449-71.0938C114.6-77.5879 107.715-84.6191 101.318-80.2734ZM52.6855-22.6074C56.25-19.043 58.3496-14.9414 58.9844-10.7422C61.9629-11.6211 64.5508-13.5742 67.8711-16.8457C68.0664-17.041 68.1641-17.1387 68.3594-17.334C66.6016-28.6621 57.959-36.377 47.6074-38.2324C47.4121-38.0371 47.2168-37.8906 47.0215-37.6953C43.6523-34.3262 41.748-31.6406 40.8691-28.5645C44.9707-28.1738 49.1699-26.2207 52.6855-22.6074ZM12.207 0.244141C19.8242 10.9863 36.4258 14.6973 47.0703 7.32422C56.25 0.927734 58.252-8.98438 52.2461-17.7246C46.7285-25.5859 36.8652-27.7344 30.3711-23.0957C22.8516-17.7734 25.9277-10.498 21.2891-7.17773C17.4805-4.44336 14.7461-6.20117 12.5977-4.6875C11.1328-3.71094 10.5957-2.09961 12.207 0.244141Z"/>
  </g>
  <g id="Black-S" transform="matrix(1 0 0 1 2875.59 696)">
   <path d="M91.2598-79.248C89.3066-77.8809 68.5547-63.8184 54.4434-51.5625C65.2344-47.6562 73.4375-39.3555 77.2949-28.7109C89.5508-42.8223 103.662-63.5742 104.98-65.5273C111.23-74.8047 100.293-85.5469 91.2598-79.248ZM53.418-27.7344C57.1777-23.9746 59.5703-19.6777 60.6445-15.1855C62.8418-15.7227 64.7949-16.6016 66.6504-17.9199C67.0898-18.2129 67.4805-18.5547 67.9199-18.8965C66.9922-30.5664 56.6406-41.3574 44.5801-42.1875C44.2871-41.7969 43.9453-41.4551 43.7012-41.0645C42.2363-39.1113 41.3086-37.0117 40.8203-34.8633C45.3125-33.8379 49.707-31.4453 53.418-27.7344ZM12.793 2.29492C22.3145 11.8164 38.8184 12.9395 48.4863 3.27148C56.1035-4.3457 55.7129-15.0879 48.2422-22.5586C41.4551-29.3457 31.5918-30.2246 24.7559-23.3887C19.6289-18.2617 21.582-13.4766 19.3848-11.2793C16.8457-8.74023 12.8418-10.498 10.2051-7.91016C7.17773-4.98047 9.375-1.12305 12.793 2.29492Z"/>
  </g>
  <g id="Heavy-S" transform="matrix(1 0 0 1 2580.54 696)">
   <path d="M88.9648-77.5879C87.0117-76.2207 66.3574-62.207 52.4902-50.0977C62.793-46.4355 70.6543-38.4766 74.3164-28.2715C86.4258-42.1875 100.439-62.8418 101.758-64.7461C107.666-73.3887 97.3145-83.4961 88.9648-77.5879ZM51.6113-27.4902C55.1758-23.9258 57.4707-19.7754 58.4473-15.625C60.8887-16.1621 62.9883-17.1387 65.0391-18.7988C65.4785-19.0918 65.8691-19.4824 66.3086-19.873C65.1855-30.957 55.4199-41.0645 43.9941-42.1387C43.6523-41.6992 43.3105-41.3574 43.0176-40.918C41.2598-38.8184 40.2344-36.6211 39.7461-34.2285C43.8477-33.3008 48.1445-30.957 51.6113-27.4902ZM12.0605 0.537109C20.8496 10.0098 36.8652 11.6211 46.4355 2.73438C54.1016-4.39453 54.1992-14.5996 47.2656-22.1191C40.9668-28.8574 31.4453-29.9805 24.9023-23.8281C19.4336-18.8477 21.582-13.6719 18.9453-11.3281C16.2109-8.83789 12.6465-10.5469 10.1562-8.25195C7.56836-5.85938 9.13086-2.53906 12.0605 0.537109Z"/>
  </g>
  <g id="Bold-S" transform="matrix(1 0 0 1 2285.68 696)">
   <path d="M86.3281-75.7324C84.4238-74.3164 63.8672-60.4004 50.2441-48.4863C60.0098-45.1172 67.5293-37.5 70.9473-27.7832C82.8613-41.4551 96.7773-61.9629 98.1445-63.916C103.662-71.8262 93.9941-81.25 86.3281-75.7324ZM49.6094-27.1973C52.8809-23.9258 55.127-19.873 55.957-16.1133C58.6426-16.6504 60.9375-17.7734 63.1836-19.7266C63.623-20.1172 64.0625-20.5078 64.502-20.9473C63.1348-31.4453 54.0039-40.7715 43.3594-42.041C42.9688-41.6504 42.5293-41.2109 42.1875-40.8203C40.1855-38.5254 39.0137-36.1328 38.5254-33.4961C42.2363-32.7148 46.3379-30.4199 49.6094-27.1973ZM11.2305-1.46484C19.2383 7.95898 34.668 10.1074 44.0918 2.09961C51.8555-4.44336 52.5391-14.1113 46.1914-21.582C40.4297-28.3691 31.25-29.7363 25-24.3164C19.2383-19.4824 21.5332-13.916 18.4082-11.4258C15.5273-8.98438 12.3535-10.5957 10.1074-8.69141C7.95898-6.83594 8.83789-4.15039 11.2305-1.46484Z"/>
  </g>
  <g id="Semibold-S" transform="matrix(1 0 0 1 1990.26 696)">
   <path d="M84.5215-74.4141C82.666-73.0469 62.1582-59.1797 48.6816-47.4121C58.1055-44.1895 65.3809-36.8164 68.6523-27.4414C80.4688-40.918 94.2871-61.377 95.6543-63.2812C100.928-70.7031 91.6992-79.6875 84.5215-74.4141ZM48.1934-27.002C51.3184-23.877 53.5156-19.9219 54.248-16.4551C57.1289-16.9434 59.5215-18.2129 61.9141-20.4102C62.3535-20.8008 62.793-21.2402 63.2324-21.6797C61.7676-31.7383 53.0762-40.5762 42.9199-41.9922C42.4805-41.6016 42.041-41.1621 41.6504-40.7227C39.4043-38.3301 38.1348-35.8398 37.6953-33.0078C41.1133-32.3242 45.1172-30.0781 48.1934-27.002ZM10.6445-2.83203C18.1152 6.5918 33.1543 9.08203 42.4805 1.66016C50.293-4.49219 51.3672-13.7695 45.4102-21.2402C40.0391-27.9785 31.1035-29.541 25.0977-24.6582C19.0918-19.9219 21.4844-14.1113 18.0664-11.4746C14.9902-9.08203 12.1582-10.6445 10.0586-8.93555C8.20312-7.4707 8.64258-5.22461 10.6445-2.83203Z"/>
  </g>
  <g id="Medium-S" transform="matrix(1 0 0 1 1694.53 696)">
   <path d="M83.1543-73.4375C81.2988-72.0703 60.8887-58.252 47.5098-46.5332C56.6406-43.457 63.7695-36.3281 66.8945-27.1973C78.6133-40.5762 92.3828-60.9375 93.75-62.8418C98.8281-69.9219 89.9902-78.4668 83.1543-73.4375ZM47.1191-26.8555C50.0977-23.877 52.2949-19.9707 52.9297-16.6992C55.957-17.1875 58.4473-18.5547 60.9375-20.8984C61.377-21.3379 61.8652-21.7773 62.2559-22.2656C60.6934-31.9824 52.3438-40.4297 42.5781-41.9434C42.0898-41.5527 41.6504-41.0645 41.2109-40.625C38.8184-38.1348 37.5-35.5957 37.0605-32.6172C40.2832-31.9824 44.1895-29.7852 47.1191-26.8555ZM10.2051-3.85742C17.2363 5.51758 31.9824 8.30078 41.2598 1.36719C49.1211-4.54102 50.4883-13.4766 44.8242-20.9473C39.7461-27.7344 31.0059-29.4434 25.1953-24.9512C18.9453-20.2637 21.4844-14.209 17.8223-11.5234C14.6484-9.13086 12.0605-10.6445 10.0098-9.17969C8.44727-8.00781 8.44727-6.05469 10.2051-3.85742Z"/>
  </g>
  <g id="Regular-S" transform="matrix(1 0 0 1 1399.09 696)">
   <path d="M81.3965-72.168C79.541-70.8008 59.1797-57.0312 45.9961-45.459C54.7363-42.5293 61.6211-35.6445 64.5996-26.9043C76.1719-40.0391 89.9414-60.4004 91.3086-62.2559C96.0938-68.8477 87.6953-76.9531 81.3965-72.168ZM45.752-26.6602C48.5352-23.877 50.7324-20.0195 51.2695-17.041C54.4922-17.5293 57.0801-18.9453 59.668-21.5332C60.1562-22.0215 60.5957-22.4609 61.0352-22.998C59.2773-32.3242 51.3672-40.1855 42.1387-41.8945C41.6016-41.4551 41.1621-41.0156 40.6738-40.5273C38.0859-37.9395 36.6699-35.3027 36.1816-32.1289C39.1602-31.5918 42.9688-29.4434 45.752-26.6602ZM9.61914-5.22461C16.1133 4.10156 30.4688 7.27539 39.6484 0.927734C47.5586-4.58984 49.3164-13.1348 44.0918-20.6055C39.3555-27.3438 30.8594-29.248 25.293-25.293C18.7988-20.7031 21.4355-14.4043 17.4316-11.5723C14.1602-9.22852 11.8652-10.6934 9.96094-9.42383C8.69141-8.64258 8.25195-7.12891 9.61914-5.22461Z"/>
  </g>
  <g id="Light-S" transform="matrix(1 0 0 1 1103.18 696)">
   <path d="M80.7617-71.6797C78.7109-70.2148 56.6895-55.0293 43.7988-43.5059C52.3438-40.918 59.0332-34.3262 61.6211-25.6348C73.1934-38.5254 88.3789-60.5469 89.7949-62.5977C94.1406-68.7012 86.6699-75.9766 80.7617-71.6797ZM44.3848-26.2207C47.168-23.4375 49.1699-19.8242 49.6582-16.748C52.6367-17.2852 55.0293-18.75 57.6172-21.3379C58.0078-21.6797 58.3496-22.0215 58.6914-22.4609C57.0801-31.5918 49.5117-38.916 40.625-40.5762C40.2344-40.2344 39.8438-39.8438 39.4531-39.502C36.8652-36.8652 35.4004-34.375 34.9121-31.4453C37.9395-31.0059 41.6016-29.0039 44.3848-26.2207ZM9.61914-5.9082C15.918 3.125 29.8828 6.25 38.7695 0.0488281C46.4844-5.32227 48.1934-13.623 43.0664-20.8984C38.5254-27.4414 30.2246-29.2969 24.8047-25.4395C18.5059-20.9473 21.0938-14.8438 17.1875-12.1094C14.0137-9.81445 11.7676-11.2305 9.91211-10.0098C8.69141-9.22852 8.25195-7.8125 9.61914-5.9082Z"/>
  </g>
  <g id="Thin-S" transform="matrix(1 0 0 1 807.545 696)">
   <path d="M79.9316-70.9961C77.6367-69.3848 53.3691-52.3438 40.8691-40.918C49.1211-38.8184 55.6641-32.6172 57.7637-23.9746C69.1895-36.4746 86.2793-60.6934 87.8418-63.0371C91.5039-68.5059 85.3027-74.7559 79.9316-70.9961ZM42.5293-25.6836C45.3125-22.9004 47.0703-19.5312 47.6074-16.3086C50.1465-16.9434 52.3438-18.457 54.9316-21.0449C55.1758-21.2891 55.3711-21.4844 55.6152-21.7285C54.1504-30.7129 47.0703-37.2559 38.623-38.7695C38.3789-38.5742 38.1348-38.3301 37.8906-38.0859C35.2539-35.4492 33.7891-33.2031 33.1543-30.5664C36.3281-30.2246 39.7461-28.5156 42.5293-25.6836ZM9.57031-6.83594C15.6738 1.85547 29.0527 4.83398 37.6465-1.12305C45.0195-6.25 46.6309-14.2578 41.7969-21.2402C37.3535-27.5879 29.3945-29.2969 24.2188-25.5859C18.1641-21.2891 20.6055-15.4297 16.8945-12.793C13.8184-10.5957 11.6211-11.9629 9.86328-10.791C8.74023-10.0098 8.30078-8.69141 9.57031-6.83594Z"/>
  </g>
  <g id="Ultralight-S" transform="matrix(1 0 0 1 511.396 696)">
   <path d="M79.4922-70.6543C77.0508-68.9941 51.709-50.9766 39.4043-39.5508C47.5098-37.6953 53.9062-31.6895 55.7617-23.1445C67.1387-35.4492 85.2539-60.8398 86.8652-63.2812C90.1855-68.4082 84.5703-74.1211 79.4922-70.6543ZM41.5527-25.3906C44.3359-22.6074 46.0449-19.3848 46.5332-16.1133C48.9258-16.7969 50.9766-18.3105 53.5645-20.8984C53.7598-21.0449 53.8574-21.1426 54.0039-21.3379C52.6367-30.2246 45.8008-36.377 37.5977-37.8418C37.4023-37.6953 37.2559-37.5488 37.1094-37.3535C34.4727-34.7168 32.959-32.6172 32.2754-30.127C35.498-29.834 38.7695-28.2227 41.5527-25.3906ZM9.57031-7.32422C15.5273 1.17188 28.6621 4.10156 37.0605-1.70898C44.2871-6.78711 45.8496-14.5508 41.1133-21.4355C36.8164-27.6855 29.0039-29.3457 23.877-25.7324C17.9688-21.4844 20.3613-15.7715 16.748-13.1348C13.7207-10.9863 11.5723-12.3535 9.86328-11.1816C8.74023-10.4004 8.30078-9.13086 9.57031-7.32422Z"/>
  </g>
 </g>
</svg>
