<?xml version="1.0" encoding="UTF-8"?>
<!--Generator: Apple Native CoreSVG 149-->
<!DOCTYPE svg
PUBLIC "-//W3C//DTD SVG 1.1//EN"
       "http://www.w3.org/Graphics/SVG/1.1/DTD/svg11.dtd">
<svg version="1.1" xmlns="http://www.w3.org/2000/svg" xmlns:xlink="http://www.w3.org/1999/xlink" width="3300" height="2200">
 <!--glyph: "uni100285.medium", point size: 100.000000, font version: "Version 16.0d18e1", template writer version: "8"-->
 <g id="Notes">
  <rect height="2200" id="artboard" style="fill:white;opacity:1" width="3300" x="0" y="0"/>
  <line id="" style="fill:none;stroke:black;opacity:1;stroke-width:0.5;" x1="263" x2="3036" y1="292" y2="292"/>
  <text style="stroke:none;fill:black;font-family:-apple-system,&quot;SF Pro Display&quot;,&quot;SF Pro Text&quot;,Helvetica,sans-serif;font-weight:bold;" transform="matrix(1 0 0 1 263 322)">Weight/Scale Variations</text>
  <text style="stroke:none;fill:black;font-family:-apple-system,&quot;SF Pro Display&quot;,&quot;SF Pro Text&quot;,Helvetica,sans-serif;text-anchor:middle;" transform="matrix(1 0 0 1 559.711 322)">Ultralight</text>
  <text style="stroke:none;fill:black;font-family:-apple-system,&quot;SF Pro Display&quot;,&quot;SF Pro Text&quot;,Helvetica,sans-serif;text-anchor:middle;" transform="matrix(1 0 0 1 856.422 322)">Thin</text>
  <text style="stroke:none;fill:black;font-family:-apple-system,&quot;SF Pro Display&quot;,&quot;SF Pro Text&quot;,Helvetica,sans-serif;text-anchor:middle;" transform="matrix(1 0 0 1 1153.13 322)">Light</text>
  <text style="stroke:none;fill:black;font-family:-apple-system,&quot;SF Pro Display&quot;,&quot;SF Pro Text&quot;,Helvetica,sans-serif;text-anchor:middle;" transform="matrix(1 0 0 1 1449.84 322)">Regular</text>
  <text style="stroke:none;fill:black;font-family:-apple-system,&quot;SF Pro Display&quot;,&quot;SF Pro Text&quot;,Helvetica,sans-serif;text-anchor:middle;" transform="matrix(1 0 0 1 1746.56 322)">Medium</text>
  <text style="stroke:none;fill:black;font-family:-apple-system,&quot;SF Pro Display&quot;,&quot;SF Pro Text&quot;,Helvetica,sans-serif;text-anchor:middle;" transform="matrix(1 0 0 1 2043.27 322)">Semibold</text>
  <text style="stroke:none;fill:black;font-family:-apple-system,&quot;SF Pro Display&quot;,&quot;SF Pro Text&quot;,Helvetica,sans-serif;text-anchor:middle;" transform="matrix(1 0 0 1 2339.98 322)">Bold</text>
  <text style="stroke:none;fill:black;font-family:-apple-system,&quot;SF Pro Display&quot;,&quot;SF Pro Text&quot;,Helvetica,sans-serif;text-anchor:middle;" transform="matrix(1 0 0 1 2636.69 322)">Heavy</text>
  <text style="stroke:none;fill:black;font-family:-apple-system,&quot;SF Pro Display&quot;,&quot;SF Pro Text&quot;,Helvetica,sans-serif;text-anchor:middle;" transform="matrix(1 0 0 1 2933.4 322)">Black</text>
  <line id="" style="fill:none;stroke:black;opacity:1;stroke-width:0.5;" x1="263" x2="3036" y1="1903" y2="1903"/>
  <g id="" transform="matrix(1 0 0 1 263 1933)">
   <path d="M9.24805 0.830078C13.5547 0.830078 17.1387-2.74414 17.1387-7.05078C17.1387-11.3574 13.5449-14.9316 9.23828-14.9316C4.94141-14.9316 1.36719-11.3574 1.36719-7.05078C1.36719-2.74414 4.95117 0.830078 9.24805 0.830078ZM9.24805-0.654297C5.70312-0.654297 2.87109-3.49609 2.87109-7.05078C2.87109-10.6055 5.69336-13.4473 9.23828-13.4473C12.793-13.4473 15.6348-10.6055 15.6445-7.05078C15.6543-3.49609 12.8027-0.654297 9.24805-0.654297ZM6.39648-6.31836L8.50586-6.31836L8.50586-4.19922C8.50586-3.75977 8.79883-3.45703 9.22852-3.45703C9.67773-3.45703 9.9707-3.75977 9.9707-4.19922L9.9707-6.31836L12.0996-6.31836C12.5391-6.31836 12.8418-6.61133 12.8418-7.04102C12.8418-7.48047 12.5391-7.7832 12.0996-7.7832L9.9707-7.7832L9.9707-9.89258C9.9707-10.3418 9.67773-10.6445 9.22852-10.6445C8.79883-10.6445 8.50586-10.3418 8.50586-9.89258L8.50586-7.7832L6.39648-7.7832C5.94727-7.7832 5.64453-7.48047 5.64453-7.04102C5.64453-6.61133 5.94727-6.31836 6.39648-6.31836Z"/>
  </g>
  <g id="" transform="matrix(1 0 0 1 281.506 1933)">
   <path d="M11.709 2.91016C17.1582 2.91016 21.6699-1.61133 21.6699-7.05078C21.6699-12.5 17.1484-17.0117 11.6992-17.0117C6.25977-17.0117 1.74805-12.5 1.74805-7.05078C1.74805-1.61133 6.26953 2.91016 11.709 2.91016ZM11.709 1.25C7.09961 1.25 3.41797-2.44141 3.41797-7.05078C3.41797-11.6602 7.08984-15.3516 11.6992-15.3516C16.3086-15.3516 20-11.6602 20.0098-7.05078C20.0195-2.44141 16.3184 1.25 11.709 1.25ZM7.98828-6.23047L10.8789-6.23047L10.8789-3.32031C10.8789-2.83203 11.2109-2.5 11.6895-2.5C12.1777-2.5 12.5195-2.83203 12.5195-3.32031L12.5195-6.23047L15.4297-6.23047C15.918-6.23047 16.25-6.5625 16.25-7.04102C16.25-7.5293 15.918-7.87109 15.4297-7.87109L12.5195-7.87109L12.5195-10.7617C12.5195-11.2695 12.1777-11.6016 11.6895-11.6016C11.2109-11.6016 10.8789-11.2598 10.8789-10.7617L10.8789-7.87109L7.98828-7.87109C7.48047-7.87109 7.14844-7.5293 7.14844-7.04102C7.14844-6.5625 7.49023-6.23047 7.98828-6.23047Z"/>
  </g>
  <g id="" transform="matrix(1 0 0 1 304.924 1933)">
   <path d="M14.9707 5.66406C21.9336 5.66406 27.6953-0.0976562 27.6953-7.05078C27.6953-14.0137 21.9238-19.7754 14.9609-19.7754C8.00781-19.7754 2.25586-14.0137 2.25586-7.05078C2.25586-0.0976562 8.01758 5.66406 14.9707 5.66406ZM14.9707 3.84766C8.93555 3.84766 4.08203-1.01562 4.08203-7.05078C4.08203-13.0957 8.92578-17.9492 14.9609-17.9492C21.0059-17.9492 25.8594-13.0957 25.8691-7.05078C25.8789-1.01562 21.0156 3.84766 14.9707 3.84766ZM10.0586-6.14258L14.0625-6.14258L14.0625-2.12891C14.0625-1.5918 14.4336-1.2207 14.9512-1.2207C15.4883-1.2207 15.8594-1.5918 15.8594-2.12891L15.8594-6.14258L19.8828-6.14258C20.4102-6.14258 20.791-6.51367 20.791-7.03125C20.791-7.56836 20.4199-7.94922 19.8828-7.94922L15.8594-7.94922L15.8594-11.9531C15.8594-12.5098 15.4883-12.8809 14.9512-12.8809C14.4336-12.8809 14.0625-12.5 14.0625-11.9531L14.0625-7.94922L10.0586-7.94922C9.50195-7.94922 9.13086-7.56836 9.13086-7.03125C9.13086-6.51367 9.51172-6.14258 10.0586-6.14258Z"/>
  </g>
  <text style="stroke:none;fill:black;font-family:-apple-system,&quot;SF Pro Display&quot;,&quot;SF Pro Text&quot;,Helvetica,sans-serif;font-weight:bold;" transform="matrix(1 0 0 1 263 1953)">Design Variations</text>
  <text style="stroke:none;fill:black;font-family:-apple-system,&quot;SF Pro Display&quot;,&quot;SF Pro Text&quot;,Helvetica,sans-serif;" transform="matrix(1 0 0 1 263 1971)">Symbols are supported in up to nine weights and three scales.</text>
  <text style="stroke:none;fill:black;font-family:-apple-system,&quot;SF Pro Display&quot;,&quot;SF Pro Text&quot;,Helvetica,sans-serif;" transform="matrix(1 0 0 1 263 1989)">For optimal layout with text and other symbols, vertically align</text>
  <text style="stroke:none;fill:black;font-family:-apple-system,&quot;SF Pro Display&quot;,&quot;SF Pro Text&quot;,Helvetica,sans-serif;" transform="matrix(1 0 0 1 263 2007)">symbols with the adjacent text.</text>
  <line id="" style="fill:none;stroke:#00AEEF;stroke-width:0.5;opacity:1.0;" x1="776" x2="776" y1="1919" y2="1933"/>
  <g id="" transform="matrix(1 0 0 1 776 1933)">
   <path d="M3.31055 0.126953C3.82812 0.126953 4.08203-0.0683594 4.26758-0.605469L5.52734-4.0625L11.2891-4.0625L12.5488-0.605469C12.7344-0.0683594 12.9883 0.126953 13.4961 0.126953C14.0137 0.126953 14.3457-0.185547 14.3457-0.673828C14.3457-0.839844 14.3164-0.986328 14.2383-1.20117L9.6582-13.3887C9.43359-13.9941 9.0332-14.2871 8.4082-14.2871C7.80273-14.2871 7.39258-13.9941 7.17773-13.3984L2.59766-1.19141C2.51953-0.976562 2.49023-0.830078 2.49023-0.664062C2.49023-0.175781 2.80273 0.126953 3.31055 0.126953ZM6.00586-5.53711L8.37891-12.1094L8.42773-12.1094L10.8008-5.53711Z"/>
  </g>
  <line id="" style="fill:none;stroke:#00AEEF;stroke-width:0.5;opacity:1.0;" x1="792.836" x2="792.836" y1="1919" y2="1933"/>
  <text style="stroke:none;fill:black;font-family:-apple-system,&quot;SF Pro Display&quot;,&quot;SF Pro Text&quot;,Helvetica,sans-serif;font-weight:bold;" transform="matrix(1 0 0 1 776 1953)">Margins</text>
  <text style="stroke:none;fill:black;font-family:-apple-system,&quot;SF Pro Display&quot;,&quot;SF Pro Text&quot;,Helvetica,sans-serif;" transform="matrix(1 0 0 1 776 1971)">Leading and trailing margins on the left and right side of each symbol</text>
  <text style="stroke:none;fill:black;font-family:-apple-system,&quot;SF Pro Display&quot;,&quot;SF Pro Text&quot;,Helvetica,sans-serif;" transform="matrix(1 0 0 1 776 1989)">can be adjusted by modifying the x-location of the margin guidelines.</text>
  <text style="stroke:none;fill:black;font-family:-apple-system,&quot;SF Pro Display&quot;,&quot;SF Pro Text&quot;,Helvetica,sans-serif;" transform="matrix(1 0 0 1 776 2007)">Modifications are automatically applied proportionally to all</text>
  <text style="stroke:none;fill:black;font-family:-apple-system,&quot;SF Pro Display&quot;,&quot;SF Pro Text&quot;,Helvetica,sans-serif;" transform="matrix(1 0 0 1 776 2025)">scales and weights.</text>
  <g id="" transform="matrix(1 0 0 1 1289 1933)">
   <path d="M2.8418 1.86523L4.54102 3.57422C5.40039 4.44336 6.38672 4.38477 7.31445 3.35938L17.4902-7.85156C17.7539-7.76367 18.0273-7.7832 18.3398-7.8418L19.4043-8.03711L20.0684-7.36328L20.0293-6.80664C19.9902-6.30859 20.1172-5.92773 20.6055-5.44922L21.3672-4.70703C21.8457-4.22852 22.4609-4.19922 22.9297-4.66797L25.8398-7.58789C26.3086-8.05664 26.2891-8.65234 25.8105-9.13086L25.0391-9.89258C24.5605-10.3711 24.1895-10.5273 23.7109-10.4883L23.1348-10.4395L22.4902-11.0742L22.7344-12.1973C22.8613-12.7637 22.7051-13.2031 22.1191-13.7891L19.9219-15.9766C16.582-19.2969 12.1484-19.2188 9.25781-16.3281C8.83789-15.918 8.80859-15.3418 9.04297-14.9512C9.27734-14.5898 9.73633-14.3555 10.3809-14.5215C11.8457-14.8633 13.3691-14.9219 14.7949-13.9844L14.209-12.5293C14.0137-12.0508 13.9844-11.6504 14.1113-11.2891L3.04688-0.898438C2.06055 0.0195312 1.98242 0.996094 2.8418 1.86523ZM10.752-15.957C13.1836-17.7344 16.4746-17.4316 18.7012-15.2051L21.1328-12.793C21.3672-12.5586 21.4062-12.373 21.3379-12.0312L21.0156-10.5469L22.5195-9.0625L23.5059-9.12109C23.7598-9.13086 23.8379-9.11133 24.0332-8.91602L24.6094-8.33984L22.168-5.89844L21.5918-6.47461C21.3965-6.66992 21.3672-6.74805 21.377-7.01172L21.4453-7.98828L19.9512-9.47266L18.4277-9.21875C18.1055-9.15039 17.959-9.17969 17.7148-9.41406L15.7129-11.416C15.459-11.6504 15.4297-11.8164 15.5859-12.1875L16.4648-14.2773C14.9023-15.7324 12.8711-16.3574 10.8398-15.7617C10.6836-15.7227 10.625-15.8496 10.752-15.957ZM5.27344 2.30469L4.10156 1.14258C3.63281 0.683594 3.74023 0.341797 4.14062-0.0195312L14.9512-10.1953L16.416-8.71094L6.42578 2.27539C6.07422 2.67578 5.74219 2.77344 5.27344 2.30469Z"/>
  </g>
  <text style="stroke:none;fill:black;font-family:-apple-system,&quot;SF Pro Display&quot;,&quot;SF Pro Text&quot;,Helvetica,sans-serif;font-weight:bold;" transform="matrix(1 0 0 1 1289 1953)">Exporting</text>
  <text style="stroke:none;fill:black;font-family:-apple-system,&quot;SF Pro Display&quot;,&quot;SF Pro Text&quot;,Helvetica,sans-serif;" transform="matrix(1 0 0 1 1289 1971)">Symbols should be outlined when exporting to ensure the</text>
  <text style="stroke:none;fill:black;font-family:-apple-system,&quot;SF Pro Display&quot;,&quot;SF Pro Text&quot;,Helvetica,sans-serif;" transform="matrix(1 0 0 1 1289 1989)">design is preserved when submitting to Xcode.</text>
  <text id="template-version" style="stroke:none;fill:black;font-family:-apple-system,&quot;SF Pro Display&quot;,&quot;SF Pro Text&quot;,Helvetica,sans-serif;text-anchor:end;" transform="matrix(1 0 0 1 3036 1933)">Template v.2.0</text>
  <text style="stroke:none;fill:black;font-family:-apple-system,&quot;SF Pro Display&quot;,&quot;SF Pro Text&quot;,Helvetica,sans-serif;text-anchor:end;" transform="matrix(1 0 0 1 3036 1951)">Requires Xcode 12 or greater</text>
  <text style="stroke:none;fill:black;font-family:-apple-system,&quot;SF Pro Display&quot;,&quot;SF Pro Text&quot;,Helvetica,sans-serif;text-anchor:end;" transform="matrix(1 0 0 1 3036 1969)">Generated from pause</text>
  <text style="stroke:none;fill:black;font-family:-apple-system,&quot;SF Pro Display&quot;,&quot;SF Pro Text&quot;,Helvetica,sans-serif;text-anchor:end;" transform="matrix(1 0 0 1 3036 1987)">Typeset at 100 points</text>
  <text style="stroke:none;fill:black;font-family:-apple-system,&quot;SF Pro Display&quot;,&quot;SF Pro Text&quot;,Helvetica,sans-serif;" transform="matrix(1 0 0 1 263 726)">Small</text>
  <text style="stroke:none;fill:black;font-family:-apple-system,&quot;SF Pro Display&quot;,&quot;SF Pro Text&quot;,Helvetica,sans-serif;" transform="matrix(1 0 0 1 263 1156)">Medium</text>
  <text style="stroke:none;fill:black;font-family:-apple-system,&quot;SF Pro Display&quot;,&quot;SF Pro Text&quot;,Helvetica,sans-serif;" transform="matrix(1 0 0 1 263 1586)">Large</text>
 </g>
 <g id="Guides">
  <g id="H-reference" style="fill:#27AAE1;stroke:none;" transform="matrix(1 0 0 1 339 696)">
   <path d="M0.976562 0L3.66211 0L12.9883-24.4629L45.752-24.4629L55.127 0L57.7637 0L30.6152-70.459L28.125-70.459ZM29.3457-67.1387L29.4434-67.1387L44.873-26.709L13.8672-26.709Z"/>
  </g>
  <line id="Baseline-S" style="fill:none;stroke:#27AAE1;opacity:1;stroke-width:0.5;" x1="263" x2="3036" y1="696" y2="696"/>
  <line id="Capline-S" style="fill:none;stroke:#27AAE1;opacity:1;stroke-width:0.5;" x1="263" x2="3036" y1="625.541" y2="625.541"/>
  <g id="H-reference" style="fill:#27AAE1;stroke:none;" transform="matrix(1 0 0 1 339 1126)">
   <path d="M0.976562 0L3.66211 0L12.9883-24.4629L45.752-24.4629L55.127 0L57.7637 0L30.6152-70.459L28.125-70.459ZM29.3457-67.1387L29.4434-67.1387L44.873-26.709L13.8672-26.709Z"/>
  </g>
  <line id="Baseline-M" style="fill:none;stroke:#27AAE1;opacity:1;stroke-width:0.5;" x1="263" x2="3036" y1="1126" y2="1126"/>
  <line id="Capline-M" style="fill:none;stroke:#27AAE1;opacity:1;stroke-width:0.5;" x1="263" x2="3036" y1="1055.54" y2="1055.54"/>
  <g id="H-reference" style="fill:#27AAE1;stroke:none;" transform="matrix(1 0 0 1 339 1556)">
   <path d="M0.976562 0L3.66211 0L12.9883-24.4629L45.752-24.4629L55.127 0L57.7637 0L30.6152-70.459L28.125-70.459ZM29.3457-67.1387L29.4434-67.1387L44.873-26.709L13.8672-26.709Z"/>
  </g>
  <line id="Baseline-L" style="fill:none;stroke:#27AAE1;opacity:1;stroke-width:0.5;" x1="263" x2="3036" y1="1556" y2="1556"/>
  <line id="Capline-L" style="fill:none;stroke:#27AAE1;opacity:1;stroke-width:0.5;" x1="263" x2="3036" y1="1485.54" y2="1485.54"/>
  <line id="left-margin" style="fill:none;stroke:#00AEEF;stroke-width:0.5;opacity:1.0;" x1="1417.08" x2="1417.08" y1="1030.79" y2="1150.12"/>
  <line id="right-margin" style="fill:none;stroke:#00AEEF;stroke-width:0.5;opacity:1.0;" x1="1482.61" x2="1482.61" y1="1030.79" y2="1150.12"/>
 </g>
 <g id="Symbols">
  <g id="Black-L" transform="matrix(1 0 0 1 2879.47 1556)">
   <path d="M28.3203 21.4844C35.4492 21.4844 40.625 16.4062 40.625 9.57031L40.625-80.0293C40.625-86.8164 35.4492-91.8945 28.3203-91.8945C21.2402-91.8945 16.0645-86.8164 16.0645-80.0293L16.0645 9.57031C16.0645 16.4062 21.2402 21.4844 28.3203 21.4844ZM79.4922 21.4844C86.6211 21.4844 91.7969 16.4062 91.7969 9.57031L91.7969-80.0293C91.7969-86.8164 86.6211-91.8945 79.4922-91.8945C72.4121-91.8945 67.2363-86.8164 67.2363-80.0293L67.2363 9.57031C67.2363 16.4062 72.4121 21.4844 79.4922 21.4844Z"/>
  </g>
  <g id="Heavy-L" transform="matrix(1 0 0 1 2585.74 1556)">
   <path d="M26.5137 20.166C32.5195 20.166 36.9629 15.8203 36.9629 10.0586L36.9629-80.4688C36.9629-86.2793 32.5195-90.5762 26.5137-90.5762C20.5078-90.5762 16.0645-86.2793 16.0645-80.4688L16.0645 10.0586C16.0645 15.8203 20.5078 20.166 26.5137 20.166ZM75.3906 20.166C81.4453 20.166 85.8398 15.8203 85.8398 10.0586L85.8398-80.4688C85.8398-86.2793 81.4453-90.5762 75.3906-90.5762C69.3848-90.5762 64.9414-86.2793 64.9414-80.4688L64.9414 10.0586C64.9414 15.8203 69.3848 20.166 75.3906 20.166Z"/>
  </g>
  <g id="Bold-L" transform="matrix(1 0 0 1 2292.32 1556)">
   <path d="M24.5117 18.75C29.2969 18.75 32.9102 15.2344 32.9102 10.5469L32.9102-80.957C32.9102-85.6445 29.2969-89.1113 24.5117-89.1113C19.6777-89.1113 16.0645-85.6445 16.0645-80.957L16.0645 10.5469C16.0645 15.2344 19.6777 18.75 24.5117 18.75ZM70.8008 18.75C75.6348 18.75 79.248 15.2344 79.248 10.5469L79.248-80.957C79.248-85.6445 75.6348-89.1113 70.8008-89.1113C66.0156-89.1113 62.4023-85.6445 62.4023-80.957L62.4023 10.5469C62.4023 15.2344 66.0156 18.75 70.8008 18.75Z"/>
  </g>
  <g id="Semibold-L" transform="matrix(1 0 0 1 1997.88 1556)">
   <path d="M23.0957 17.7246C27.0508 17.7246 30.127 14.7949 30.127 10.8887L30.127-81.2988C30.127-85.1562 27.0508-88.1348 23.0957-88.1348C19.0918-88.1348 16.0645-85.1562 16.0645-81.2988L16.0645 10.8887C16.0645 14.7949 19.0918 17.7246 23.0957 17.7246ZM67.6758 17.7246C71.6309 17.7246 74.707 14.7949 74.707 10.8887L74.707-81.2988C74.707-85.1562 71.6309-88.1348 67.6758-88.1348C63.6719-88.1348 60.6445-85.1562 60.6445-81.2988L60.6445 10.8887C60.6445 14.7949 63.6719 17.7246 67.6758 17.7246Z"/>
  </g>
  <g id="Medium-L" transform="matrix(1 0 0 1 1702.9 1556)">
   <path d="M22.0215 16.9922C25.3418 16.9922 27.9785 14.4531 27.9785 11.1816L27.9785-81.543C27.9785-84.8633 25.3418-87.3535 22.0215-87.3535C18.7012-87.3535 16.0645-84.8633 16.0645-81.543L16.0645 11.1816C16.0645 14.4531 18.7012 16.9922 22.0215 16.9922ZM65.2832 16.9922C68.6035 16.9922 71.2402 14.4531 71.2402 11.1816L71.2402-81.543C71.2402-84.8633 68.6035-87.3535 65.2832-87.3535C61.9141-87.3535 59.3262-84.8633 59.3262-81.543L59.3262 11.1816C59.3262 14.4531 61.9141 16.9922 65.2832 16.9922Z"/>
  </g>
  <g id="Regular-L" transform="matrix(1 0 0 1 1408.46 1556)">
   <path d="M20.6543 15.9668C23.1445 15.9668 25.1953 14.0137 25.1953 11.5234L25.1953-81.8848C25.1953-84.4238 23.1445-86.377 20.6543-86.377C18.1152-86.377 16.0645-84.4238 16.0645-81.8848L16.0645 11.5234C16.0645 14.0137 18.1152 15.9668 20.6543 15.9668ZM62.1582 15.9668C64.6484 15.9668 66.6992 14.0137 66.6992 11.5234L66.6992-81.8848C66.6992-84.4238 64.6484-86.377 62.1582-86.377C59.6191-86.377 57.5684-84.4238 57.5684-81.8848L57.5684 11.5234C57.5684 14.0137 59.6191 15.9668 62.1582 15.9668Z"/>
  </g>
  <g id="Light-L" transform="matrix(1 0 0 1 1112.95 1556)">
   <path d="M19.5312 14.7949C21.4355 14.7949 22.998 13.2812 22.998 11.377L22.998-81.7871C22.998-83.6914 21.4355-85.1562 19.5312-85.1562C17.627-85.1562 16.0645-83.6914 16.0645-81.7871L16.0645 11.377C16.0645 13.2812 17.627 14.7949 19.5312 14.7949ZM60.8398 14.7949C62.7441 14.7949 64.3066 13.2812 64.3066 11.377L64.3066-81.7871C64.3066-83.6914 62.7441-85.1562 60.8398-85.1562C58.9355-85.1562 57.373-83.6914 57.373-81.7871L57.373 11.377C57.373 13.2812 58.9355 14.7949 60.8398 14.7949Z"/>
  </g>
  <g id="Thin-L" transform="matrix(1 0 0 1 817.824 1556)">
   <path d="M18.0664 13.2324C19.1406 13.2324 20.0684 12.3535 20.0684 11.2305L20.0684-81.6406C20.0684-82.7148 19.1406-83.5938 18.0664-83.5938C16.9434-83.5938 16.0645-82.7148 16.0645-81.6406L16.0645 11.2305C16.0645 12.3535 16.9434 13.2324 18.0664 13.2324ZM59.1309 13.2324C60.2539 13.2324 61.1328 12.3535 61.1328 11.2305L61.1328-81.6406C61.1328-82.7148 60.2539-83.5938 59.1309-83.5938C58.0566-83.5938 57.1289-82.7148 57.1289-81.6406L57.1289 11.2305C57.1289 12.3535 58.0566 13.2324 59.1309 13.2324Z"/>
  </g>
  <g id="Ultralight-L" transform="matrix(1 0 0 1 521.918 1556)">
   <path d="M17.334 12.4512C18.0176 12.4512 18.5547 11.8652 18.5547 11.1816L18.5547-81.543C18.5547-82.2266 18.0176-82.8125 17.334-82.8125C16.6016-82.8125 16.0645-82.2266 16.0645-81.543L16.0645 11.1816C16.0645 11.8652 16.6016 12.4512 17.334 12.4512ZM58.252 12.4512C58.9355 12.4512 59.5215 11.8652 59.5215 11.1816L59.5215-81.543C59.5215-82.2266 58.9355-82.8125 58.252-82.8125C57.5684-82.8125 57.0312-82.2266 57.0312-81.543L57.0312 11.1816C57.0312 11.8652 57.5684 12.4512 58.252 12.4512Z"/>
  </g>
  <g id="Black-M" transform="matrix(1 0 0 1 2888.26 1126)">
   <path d="M23.8281 9.81445C30.4688 9.81445 35.2051 5.17578 35.2051-1.17188L35.2051-69.2871C35.2051-75.6348 30.4688-80.2734 23.8281-80.2734C17.1875-80.2734 12.4512-75.6348 12.4512-69.2871L12.4512-1.17188C12.4512 5.17578 17.1875 9.81445 23.8281 9.81445ZM66.4551 9.81445C73.0957 9.81445 77.832 5.17578 77.832-1.17188L77.832-69.2871C77.832-75.6348 73.0957-80.2734 66.4551-80.2734C59.8145-80.2734 55.0781-75.6348 55.0781-69.2871L55.0781-1.17188C55.0781 5.17578 59.8145 9.81445 66.4551 9.81445Z"/>
  </g>
  <g id="Heavy-M" transform="matrix(1 0 0 1 2594.48 1126)">
   <path d="M22.1191 8.74023C27.7344 8.74023 31.7871 4.73633 31.7871-0.634766L31.7871-69.8242C31.7871-75.1953 27.7344-79.1504 22.1191-79.1504C16.5039-79.1504 12.4512-75.1953 12.4512-69.8242L12.4512-0.634766C12.4512 4.73633 16.5039 8.74023 22.1191 8.74023ZM62.3047 8.74023C67.9199 8.74023 71.9727 4.73633 71.9727-0.634766L71.9727-69.8242C71.9727-75.1953 67.9199-79.1504 62.3047-79.1504C56.6895-79.1504 52.6367-75.1953 52.6367-69.8242L52.6367-0.634766C52.6367 4.73633 56.6895 8.74023 62.3047 8.74023Z"/>
  </g>
  <g id="Bold-M" transform="matrix(1 0 0 1 2301.04 1126)">
   <path d="M20.2148 7.4707C24.707 7.4707 27.9785 4.24805 27.9785-0.0488281L27.9785-70.3613C27.9785-74.6582 24.707-77.9297 20.2148-77.9297C15.7715-77.9297 12.4512-74.6582 12.4512-70.3613L12.4512-0.0488281C12.4512 4.24805 15.7715 7.4707 20.2148 7.4707ZM57.666 7.4707C62.1582 7.4707 65.4297 4.24805 65.4297-0.0488281L65.4297-70.3613C65.4297-74.6582 62.1582-77.9297 57.666-77.9297C53.2227-77.9297 49.9023-74.6582 49.9023-70.3613L49.9023-0.0488281C49.9023 4.24805 53.2227 7.4707 57.666 7.4707Z"/>
  </g>
  <g id="Semibold-M" transform="matrix(1 0 0 1 2006.57 1126)">
   <path d="M18.8965 6.64062C22.6074 6.64062 25.3906 3.90625 25.3906 0.341797L25.3906-70.752C25.3906-74.3652 22.6074-77.0508 18.8965-77.0508C15.2344-77.0508 12.4512-74.3652 12.4512-70.752L12.4512 0.341797C12.4512 3.90625 15.2344 6.64062 18.8965 6.64062ZM54.4922 6.64062C58.1543 6.64062 60.9375 3.90625 60.9375 0.341797L60.9375-70.752C60.9375-74.3652 58.1543-77.0508 54.4922-77.0508C50.7812-77.0508 47.998-74.3652 47.998-70.752L47.998 0.341797C47.998 3.90625 50.7812 6.64062 54.4922 6.64062Z"/>
  </g>
  <g id="Medium-M" transform="matrix(1 0 0 1 1711.57 1126)">
   <path d="M17.9199 5.95703C20.9961 5.95703 23.3887 3.66211 23.3887 0.634766L23.3887-71.0449C23.3887-74.0723 20.9961-76.3672 17.9199-76.3672C14.8438-76.3672 12.4512-74.0723 12.4512-71.0449L12.4512 0.634766C12.4512 3.66211 14.8438 5.95703 17.9199 5.95703ZM52.0508 5.95703C55.127 5.95703 57.5195 3.66211 57.5195 0.634766L57.5195-71.0449C57.5195-74.0723 55.127-76.3672 52.0508-76.3672C48.9746-76.3672 46.582-74.0723 46.582-71.0449L46.582 0.634766C46.582 3.66211 48.9746 5.95703 52.0508 5.95703Z"/>
  </g>
  <g id="Regular-M" transform="matrix(1 0 0 1 1417.08 1126)">
   <path d="M16.6016 5.12695C18.9453 5.12695 20.8008 3.36914 20.8008 1.07422L20.8008-71.4355C20.8008-73.7305 18.9453-75.5371 16.6016-75.5371C14.3066-75.5371 12.4512-73.7305 12.4512-71.4355L12.4512 1.07422C12.4512 3.36914 14.3066 5.12695 16.6016 5.12695ZM48.877 5.12695C51.1719 5.12695 53.0762 3.36914 53.0762 1.07422L53.0762-71.4355C53.0762-73.7305 51.1719-75.5371 48.877-75.5371C46.582-75.5371 44.7266-73.7305 44.7266-71.4355L44.7266 1.07422C44.7266 3.36914 46.582 5.12695 48.877 5.12695Z"/>
  </g>
  <g id="Light-M" transform="matrix(1 0 0 1 1121.44 1126)">
   <path d="M15.625 4.05273C17.3828 4.05273 18.7988 2.68555 18.7988 0.976562L18.7988-71.3379C18.7988-73.0957 17.3828-74.4629 15.625-74.4629C13.8672-74.4629 12.4512-73.0957 12.4512-71.3379L12.4512 0.976562C12.4512 2.68555 13.8672 4.05273 15.625 4.05273ZM47.7539 4.05273C49.5117 4.05273 50.9277 2.68555 50.9277 0.976562L50.9277-71.3379C50.9277-73.0957 49.5117-74.4629 47.7539-74.4629C45.9961-74.4629 44.5801-73.0957 44.5801-71.3379L44.5801 0.976562C44.5801 2.68555 45.9961 4.05273 47.7539 4.05273Z"/>
  </g>
  <g id="Thin-M" transform="matrix(1 0 0 1 826.173 1126)">
   <path d="M14.3066 2.68555C15.332 2.68555 16.1621 1.85547 16.1621 0.830078L16.1621-71.2402C16.1621-72.2656 15.332-73.0469 14.3066-73.0469C13.2812-73.0469 12.4512-72.2656 12.4512-71.2402L12.4512 0.830078C12.4512 1.85547 13.2812 2.68555 14.3066 2.68555ZM46.1914 2.68555C47.2168 2.68555 48.0469 1.85547 48.0469 0.830078L48.0469-71.2402C48.0469-72.2656 47.2168-73.0469 46.1914-73.0469C45.166-73.0469 44.3359-72.2656 44.3359-71.2402L44.3359 0.830078C44.3359 1.85547 45.166 2.68555 46.1914 2.68555Z"/>
  </g>
  <g id="Ultralight-M" transform="matrix(1 0 0 1 530.17 1126)">
   <path d="M13.623 1.95312C14.3066 1.95312 14.8438 1.41602 14.8438 0.78125L14.8438-71.1426C14.8438-71.8262 14.3066-72.3633 13.623-72.3633C12.9883-72.3633 12.4512-71.8262 12.4512-71.1426L12.4512 0.78125C12.4512 1.41602 12.9883 1.95312 13.623 1.95312ZM45.4102 1.95312C46.0938 1.95312 46.6309 1.41602 46.6309 0.78125L46.6309-71.1426C46.6309-71.8262 46.0938-72.3633 45.4102-72.3633C44.7754-72.3633 44.2383-71.8262 44.2383-71.1426L44.2383 0.78125C44.2383 1.41602 44.7754 1.95312 45.4102 1.95312Z"/>
  </g>
  <g id="Black-S" transform="matrix(1 0 0 1 2898.24 696)">
   <path d="M18.5547 0C23.6816 0 27.3438-3.61328 27.3438-8.49609L27.3438-61.9629C27.3438-66.8457 23.6816-70.459 18.5547-70.459C13.4277-70.459 9.76562-66.8457 9.76562-61.9629L9.76562-8.49609C9.76562-3.61328 13.4277 0 18.5547 0ZM51.7578 0C56.8848 0 60.5469-3.61328 60.5469-8.49609L60.5469-61.9629C60.5469-66.8457 56.8848-70.459 51.7578-70.459C46.6309-70.459 42.9688-66.8457 42.9688-61.9629L42.9688-8.49609C42.9688-3.61328 46.6309 0 51.7578 0Z"/>
  </g>
  <g id="Heavy-S" transform="matrix(1 0 0 1 2603.66 696)">
   <path d="M17.3828-0.732422C21.7773-0.732422 24.9512-3.85742 24.9512-8.10547L24.9512-62.3535C24.9512-66.6016 21.7773-69.7266 17.3828-69.7266C12.9395-69.7266 9.76562-66.6016 9.76562-62.3535L9.76562-8.10547C9.76562-3.85742 12.9395-0.732422 17.3828-0.732422ZM48.7305-0.732422C53.125-0.732422 56.2988-3.85742 56.2988-8.10547L56.2988-62.3535C56.2988-66.6016 53.125-69.7266 48.7305-69.7266C44.3359-69.7266 41.1133-66.6016 41.1133-62.3535L41.1133-8.10547C41.1133-3.85742 44.3359-0.732422 48.7305-0.732422Z"/>
  </g>
  <g id="Bold-S" transform="matrix(1 0 0 1 2309.29 696)">
   <path d="M16.0156-1.5625C19.6289-1.5625 22.3145-4.15039 22.3145-7.61719L22.3145-62.793C22.3145-66.2598 19.6289-68.8965 16.0156-68.8965C12.4512-68.8965 9.76562-66.2598 9.76562-62.793L9.76562-7.61719C9.76562-4.15039 12.4512-1.5625 16.0156-1.5625ZM45.3125-1.5625C48.9258-1.5625 51.6113-4.15039 51.6113-7.61719L51.6113-62.793C51.6113-66.2598 48.9258-68.8965 45.3125-68.8965C41.748-68.8965 39.0625-66.2598 39.0625-62.793L39.0625-7.61719C39.0625-4.15039 41.748-1.5625 45.3125-1.5625Z"/>
  </g>
  <g id="Semibold-S" transform="matrix(1 0 0 1 2014.21 696)">
   <path d="M15.1367-2.09961C18.1641-2.09961 20.459-4.3457 20.459-7.32422L20.459-63.1348C20.459-66.0645 18.1641-68.3105 15.1367-68.3105C12.0605-68.3105 9.76562-66.0645 9.76562-63.1348L9.76562-7.32422C9.76562-4.3457 12.0605-2.09961 15.1367-2.09961ZM42.9688-2.09961C45.9961-2.09961 48.3398-4.3457 48.3398-7.32422L48.3398-63.1348C48.3398-66.0645 45.9961-68.3105 42.9688-68.3105C39.9414-68.3105 37.6465-66.0645 37.6465-63.1348L37.6465-7.32422C37.6465-4.3457 39.9414-2.09961 42.9688-2.09961Z"/>
  </g>
  <g id="Medium-S" transform="matrix(1 0 0 1 1718.75 696)">
   <path d="M14.4043-2.53906C17.041-2.53906 19.0918-4.49219 19.0918-7.08008L19.0918-63.3301C19.0918-65.918 17.041-67.8711 14.4043-67.8711C11.8164-67.8711 9.76562-65.918 9.76562-63.3301L9.76562-7.08008C9.76562-4.49219 11.8164-2.53906 14.4043-2.53906ZM41.2109-2.53906C43.7988-2.53906 45.8496-4.49219 45.8496-7.08008L45.8496-63.3301C45.8496-65.918 43.7988-67.8711 41.2109-67.8711C38.5742-67.8711 36.5234-65.918 36.5234-63.3301L36.5234-7.08008C36.5234-4.49219 38.5742-2.53906 41.2109-2.53906Z"/>
  </g>
  <g id="Regular-S" transform="matrix(1 0 0 1 1423.65 696)">
   <path d="M13.5254-3.07617C15.5762-3.07617 17.2852-4.6875 17.2852-6.73828L17.2852-63.6719C17.2852-65.7227 15.5762-67.334 13.5254-67.334C11.4746-67.334 9.76562-65.7227 9.76562-63.6719L9.76562-6.73828C9.76562-4.6875 11.4746-3.07617 13.5254-3.07617ZM38.8672-3.07617C40.9668-3.07617 42.627-4.6875 42.627-6.73828L42.627-63.6719C42.627-65.7227 40.9668-67.334 38.8672-67.334C36.8164-67.334 35.1074-65.7227 35.1074-63.6719L35.1074-6.73828C35.1074-4.6875 36.8164-3.07617 38.8672-3.07617Z"/>
  </g>
  <g id="Light-S" transform="matrix(1 0 0 1 1127.89 696)">
   <path d="M12.6465-4.05273C14.209-4.05273 15.5273-5.27344 15.5273-6.83594L15.5273-63.5742C15.5273-65.1367 14.209-66.3574 12.6465-66.3574C11.0352-66.3574 9.76562-65.1367 9.76562-63.5742L9.76562-6.83594C9.76562-5.27344 11.0352-4.05273 12.6465-4.05273ZM37.8418-4.05273C39.4531-4.05273 40.7227-5.27344 40.7227-6.83594L40.7227-63.5742C40.7227-65.1367 39.4531-66.3574 37.8418-66.3574C36.2793-66.3574 34.9609-65.1367 34.9609-63.5742L34.9609-6.83594C34.9609-5.27344 36.2793-4.05273 37.8418-4.05273Z"/>
  </g>
  <g id="Thin-S" transform="matrix(1 0 0 1 832.423 696)">
   <path d="M11.4746-5.27344C12.4023-5.27344 13.1836-6.00586 13.1836-6.93359L13.1836-63.4766C13.1836-64.4043 12.4023-65.1367 11.4746-65.1367C10.5469-65.1367 9.76562-64.4043 9.76562-63.4766L9.76562-6.93359C9.76562-6.00586 10.5469-5.27344 11.4746-5.27344ZM36.5234-5.27344C37.4512-5.27344 38.2324-6.00586 38.2324-6.93359L38.2324-63.4766C38.2324-64.4043 37.4512-65.1367 36.5234-65.1367C35.5469-65.1367 34.8145-64.4043 34.8145-63.4766L34.8145-6.93359C34.8145-6.00586 35.5469-5.27344 36.5234-5.27344Z"/>
  </g>
  <g id="Ultralight-S" transform="matrix(1 0 0 1 536.371 696)">
   <path d="M10.8887-5.9082C11.4746-5.9082 12.0117-6.39648 12.0117-7.03125L12.0117-63.3789C12.0117-64.0137 11.4746-64.502 10.8887-64.502C10.2539-64.502 9.76562-64.0137 9.76562-63.3789L9.76562-7.03125C9.76562-6.39648 10.2539-5.9082 10.8887-5.9082ZM35.791-5.9082C36.4258-5.9082 36.9141-6.39648 36.9141-7.03125L36.9141-63.3789C36.9141-64.0137 36.4258-64.502 35.791-64.502C35.2051-64.502 34.668-64.0137 34.668-63.3789L34.668-7.03125C34.668-6.39648 35.2051-5.9082 35.791-5.9082Z"/>
  </g>
 </g>
</svg>
